<?xml version="1.0" encoding="UTF-8"?>
<svg xmlns="http://www.w3.org/2000/svg" xmlns:xlink="http://www.w3.org/1999/xlink" width="32px" height="32px" viewBox="0 0 32 32" version="1.1">
<g id="surface1">
<path style=" stroke:none;fill-rule:nonzero;fill:rgb(5.882353%,5.882353%,5.882353%);fill-opacity:1;" d="M 9.328125 9.34375 C 8.804688 9.863281 8.804688 10.707031 9.328125 11.226562 L 14.105469 16.007812 L 9.328125 20.789062 C 8.804688 21.308594 8.804688 22.152344 9.328125 22.671875 C 9.847656 23.195312 10.691406 23.195312 11.210938 22.671875 L 15.992188 17.894531 L 20.773438 22.671875 C 21.292969 23.195312 22.136719 23.195312 22.65625 22.671875 C 23.179688 22.152344 23.179688 21.308594 22.65625 20.789062 L 17.878906 16.007812 L 22.65625 11.226562 C 23.179688 10.707031 23.179688 9.863281 22.65625 9.34375 C 22.136719 8.820312 21.292969 8.820312 20.773438 9.34375 L 15.992188 14.121094 L 11.210938 9.34375 C 10.691406 8.820312 9.847656 8.820312 9.328125 9.34375 Z M 9.328125 9.34375 "/>
</g>
</svg>
